<svg xmlns="http://www.w3.org/2000/svg" viewBox="0 0 512 512" width="512" height="512">
  <defs>
    <linearGradient id="g" x1="0" y1="0" x2="1" y2="1">
      <stop offset="0%" stop-color="#1B3A6B"/>
      <stop offset="40%" stop-color="#1B8A9E"/>
      <stop offset="100%" stop-color="#4DB848"/>
    </linearGradient>
  </defs>
  <!-- Speech bubble -->
  <path d="M340 40 C340 40 310 40 300 40 Q270 40 270 70 L270 100 Q270 130 300 130 L400 130 Q430 130 430 100 L430 70 Q430 40 400 40 L380 40 L360 40 L340 40 Z M340 130 L330 155 L355 130" fill="url(#g)"/>
  <!-- Dots in bubble -->
  <circle cx="320" cy="85" r="10" fill="white"/>
  <circle cx="355" cy="85" r="10" fill="white"/>
  <circle cx="390" cy="85" r="10" fill="white"/>
  <!-- Circuit lines -->
  <line x1="50" y1="170" x2="280" y2="170" stroke="url(#g)" stroke-width="22" stroke-linecap="round"/>
  <line x1="80" y1="240" x2="310" y2="240" stroke="url(#g)" stroke-width="22" stroke-linecap="round"/>
  <line x1="50" y1="310" x2="280" y2="310" stroke="url(#g)" stroke-width="22" stroke-linecap="round"/>
  <line x1="130" y1="380" x2="260" y2="380" stroke="url(#g)" stroke-width="22" stroke-linecap="round"/>
  <!-- Face profile outline -->
  <path d="M310 145 Q380 145 400 200 Q420 260 400 310 Q390 340 370 370 Q350 400 340 420 Q330 440 325 455 Q320 470 310 475 Q300 480 295 470 Q285 450 290 430" 
        fill="none" stroke="url(#g)" stroke-width="24" stroke-linecap="round" stroke-linejoin="round"/>
  <!-- Circuit nodes (circles on the lines connecting to face) -->
  <circle cx="300" cy="240" r="24" fill="url(#g)"/>
  <circle cx="300" cy="240" r="9" fill="white"/>
  <circle cx="270" cy="310" r="24" fill="url(#g)"/>
  <circle cx="270" cy="310" r="9" fill="white"/>
  <circle cx="250" cy="380" r="24" fill="url(#g)"/>
  <circle cx="250" cy="380" r="9" fill="white"/>
</svg>
